# xmcd
# 
# Track frame offsets:
#     150
#     19585
#     39097
#     60685
#     82735
# 
# Disc length: 1355
# 
# Revision: 4
# Processed by: cddbd v1.5.2PL0 Copyright (c) Steve Scherf et al.
# Submitted via: BonkEnc v1.0
# 
DISCID=29054905
DTITLE=Celine Dion - On Tour
DYEAR=0
DGENRE=Pop
TTITLE0=Falling Into You
TTITLE1=Declaration Of Love
TTITLE2=Think Twice
TTITLE3=Love Can Move Mountians
TTITLE4=Have A Heart
EXTD=
EXTT0=
EXTT1=
EXTT2=
EXTT3=
EXTT4=
PLAYORDER=
